<?xml version="1.0" standalone="no"?>
<!DOCTYPE svg PUBLIC "-//W3C//DTD SVG 20010904//EN"
 "http://www.w3.org/TR/2001/REC-SVG-20010904/DTD/svg10.dtd">
<svg version="1.0" xmlns="http://www.w3.org/2000/svg"
 width="1001.000000pt" height="1001.000000pt" viewBox="0 0 1001.000000 1001.000000"
 preserveAspectRatio="xMidYMid meet">
<metadata>
Created by potrace 1.14, written by Peter Selinger 2001-2017
</metadata>
<g transform="translate(0.000000,1001.000000) scale(0.100000,-0.100000)"
fill="#000000" stroke="none">
<path d="M260 4980 l0 -3730 4745 0 4745 0 0 3730 0 3730 -4745 0 -4745 0 0
-3730z m9250 0 l0 -3490 -4505 0 -4505 0 0 3490 0 3490 4505 0 4505 0 0 -3490z"/>
<path d="M4795 8134 c4 -16 10 -190 12 -386 l4 -358 -535 0 -536 0 0 -50 0
-50 536 0 537 0 -7 -72 c-26 -270 -135 -559 -291 -770 -172 -234 -374 -397
-660 -534 -74 -36 -135 -68 -135 -72 1 -4 18 -26 38 -50 l38 -43 86 35 c457
184 783 484 988 909 l57 118 32 -78 c174 -419 541 -766 1015 -958 l80 -33 44
55 c24 30 43 55 41 57 -2 1 -31 13 -64 26 -566 218 -985 756 -1041 1338 l-7
72 542 0 541 0 0 50 0 50 -540 0 -540 0 0 329 c0 278 2 334 16 367 15 35 15
39 -2 51 -10 7 -41 13 -68 13 -28 0 -82 3 -120 7 l-69 6 8 -29z"/>
<path d="M2168 8026 l4 -126 -536 0 -536 0 0 -45 0 -45 535 0 535 0 0 -150 0
-150 -355 0 -355 0 2 -472 3 -473 279 -5 280 -5 -78 -92 c-182 -218 -461 -414
-751 -528 -38 -15 -72 -29 -73 -30 -7 -7 64 -94 76 -95 22 0 179 68 314 136
203 103 474 292 616 427 l42 41 0 -332 0 -332 110 0 110 0 0 347 0 346 73 -70
c160 -155 391 -314 602 -418 127 -62 287 -125 316 -125 14 0 95 88 88 95 -2 1
-54 23 -115 48 -267 109 -456 223 -605 364 -80 77 -189 201 -189 217 0 3 122
6 270 6 l270 0 0 475 0 475 -355 0 -356 0 3 148 3 147 548 3 547 2 0 45 0 45
-550 0 -550 0 0 70 c0 52 6 82 21 112 15 29 18 43 10 51 -6 6 -65 13 -134 15
l-123 4 4 -126z m2 -776 l0 -160 -247 2 -248 3 -3 158 -3 157 251 0 250 0 0
-160z m728 3 l-3 -158 -250 0 -250 0 -3 158 -3 157 256 0 256 0 -3 -157z
m-728 -423 l0 -170 -250 0 -250 0 0 163 c0 90 3 167 7 170 3 4 116 7 250 7
l243 0 0 -170z m728 -2 l2 -168 -255 0 -255 0 0 170 0 170 253 -2 252 -3 3
-167z"/>
<path d="M7904 5334 c18 -47 26 -128 26 -270 l0 -154 -192 -2 -193 -3 -3 -47
-3 -48 195 0 196 0 0 -22 c-1 -76 -22 -324 -29 -331 -4 -4 -25 7 -47 24 -49
40 -184 129 -195 129 -4 0 -20 -16 -35 -36 l-27 -35 89 -92 c49 -51 109 -113
133 -139 l45 -47 -42 -85 c-55 -110 -139 -223 -235 -313 l-75 -71 39 -26 c21
-14 44 -26 50 -26 20 0 136 99 207 175 37 41 88 106 113 144 24 39 47 71 50
71 3 0 27 -29 53 -65 26 -35 51 -67 56 -70 8 -5 105 120 117 151 3 9 -24 44
-72 93 l-77 80 16 68 c24 101 35 185 42 311 l7 112 114 0 c104 0 114 -2 109
-17 -39 -126 -74 -343 -86 -529 -16 -254 12 -435 83 -540 42 -62 87 -88 152
-88 112 1 218 102 281 270 13 36 24 66 24 68 0 3 -17 15 -37 27 -21 13 -54 35
-73 51 -39 32 -50 35 -50 13 0 -32 -63 -178 -89 -208 -38 -41 -73 -33 -103 26
-71 138 9 768 128 1000 l15 27 -231 0 -230 0 0 174 c0 144 3 176 15 186 9 7
15 22 13 34 -4 24 -32 31 -162 42 -85 6 -89 6 -82 -12z"/>
<path d="M4496 5328 c-2 -7 -9 -32 -14 -55 l-10 -43 37 -6 c319 -55 550 -142
756 -285 39 -27 74 -49 78 -49 9 0 110 201 104 207 -3 2 -45 22 -94 43 -188
81 -421 141 -695 179 -175 25 -158 24 -162 9z"/>
<path d="M6938 5298 c4 -23 7 -70 7 -103 l0 -60 -287 -3 -288 -2 0 -45 0 -45
655 0 655 0 0 45 0 45 -270 0 -270 0 0 61 c0 40 6 71 17 90 27 45 9 53 -117
57 l-108 4 6 -44z"/>
<path d="M1850 5211 c0 -48 -3 -149 -7 -224 l-6 -137 -320 0 -319 0 6 -31 c3
-17 6 -54 6 -82 l0 -50 58 7 c108 12 367 35 471 42 l104 7 -7 -199 c-4 -109
-8 -200 -10 -201 -2 -2 -20 4 -42 14 -56 24 -202 23 -274 -1 -76 -26 -168
-119 -198 -198 -77 -206 -41 -450 85 -576 104 -103 260 -130 404 -68 15 6 17
-7 21 -116 3 -95 9 -133 25 -168 39 -89 129 -144 280 -172 91 -17 556 -17 678
0 254 36 389 112 426 239 29 101 9 268 -53 441 l-30 83 -32 -7 c-61 -13 -78
-23 -71 -42 43 -110 57 -282 29 -365 -60 -175 -292 -256 -702 -245 -183 6
-234 17 -285 66 -16 15 -37 43 -47 62 -40 79 -45 139 -43 510 3 382 24 934 36
946 7 7 97 13 450 30 l137 6 0 72 0 73 -82 -14 c-110 -17 -345 -41 -433 -44
l-70 -2 3 59 c6 130 25 250 44 287 33 65 29 67 -164 81 l-68 5 0 -88z m-114
-970 c25 -12 50 -33 65 -57 24 -39 24 -41 20 -254 -3 -186 -6 -220 -22 -252
-39 -76 -121 -105 -204 -74 -82 32 -136 119 -157 253 -20 128 19 289 86 352
53 50 143 63 212 32z"/>
<path d="M2892 4932 c-23 -21 -42 -42 -42 -47 0 -6 23 -33 51 -60 107 -105
262 -319 339 -467 19 -38 38 -67 42 -65 4 1 43 37 87 81 l81 78 -57 67 c-68
80 -268 279 -378 378 l-80 71 -43 -36z"/>
<path d="M6540 4715 l0 -195 440 0 440 0 0 195 0 195 -440 0 -440 0 0 -195z
m680 0 l0 -95 -240 0 -240 0 0 95 0 95 240 0 240 0 0 -95z"/>
<path d="M4145 4888 c-13 -39 -127 -782 -155 -1008 -6 -47 -13 -99 -15 -117
-6 -37 -3 -39 95 -48 l65 -6 59 80 c122 167 295 309 490 402 140 66 234 90
386 96 186 8 310 -29 411 -124 100 -93 141 -192 142 -343 1 -179 -49 -300
-177 -425 -183 -180 -402 -255 -847 -290 l-75 -6 10 -57 c5 -31 10 -58 11 -60
6 -7 374 41 480 63 455 95 715 287 791 585 21 80 23 254 5 330 -54 223 -213
380 -452 446 -100 28 -335 26 -454 -5 -218 -57 -424 -165 -637 -337 -44 -36
-82 -63 -85 -60 -10 10 70 447 113 620 27 105 43 144 68 165 37 31 20 43 -114
81 -41 12 -83 24 -93 26 -9 3 -19 -1 -22 -8z"/>
<path d="M6410 4345 l0 -45 380 0 c209 0 380 -3 380 -6 0 -3 -21 -32 -46 -65
l-46 -60 -64 6 -64 7 0 -91 c0 -86 -1 -91 -22 -95 -48 -10 -415 -39 -503 -40
l-91 -1 39 -98 c22 -55 47 -101 55 -105 9 -3 25 7 41 26 26 30 30 31 236 62
116 17 217 32 225 33 32 4 23 -145 -10 -163 -12 -6 -46 -6 -100 1 -45 5 -85 8
-87 5 -3 -3 3 -28 12 -56 l17 -52 137 4 c208 6 231 25 239 193 5 103 5 104 31
109 36 8 393 66 403 66 8 0 12 73 3 81 -2 3 -91 -5 -197 -18 -247 -28 -238
-28 -238 1 0 18 34 50 165 152 152 119 165 131 165 162 l0 32 -530 0 -530 0 0
-45z"/>
<path d="M7431 3708 c5 -18 12 -68 15 -110 l7 -78 -422 0 -421 0 0 -50 0 -50
420 0 420 0 0 -135 0 -135 -545 0 -545 0 0 -50 0 -50 1190 0 1190 0 0 50 0 50
-540 0 -540 0 0 135 0 135 420 0 420 0 0 50 0 50 -420 0 -420 0 0 65 c0 43 5
74 16 90 28 42 17 46 -178 59 l-76 6 9 -32z"/>
<path d="M1250 2395 c0 -24 2 -25 65 -25 l65 0 0 -200 0 -200 25 0 25 0 0 200
0 199 63 3 c54 3 62 5 62 23 0 19 -8 20 -152 23 l-153 3 0 -26z"/>
<path d="M1704 2410 c-67 -27 -112 -141 -101 -258 11 -113 66 -181 154 -189
127 -13 200 83 191 251 -7 139 -63 207 -169 205 -30 0 -63 -4 -75 -9z m135
-46 c37 -26 61 -90 61 -164 0 -86 -13 -130 -51 -166 -24 -23 -39 -29 -75 -29
-39 0 -50 5 -74 32 -68 75 -66 245 2 314 23 23 38 29 72 29 23 0 52 -7 65 -16z"/>
<path d="M2030 2196 l0 -226 88 0 c135 1 194 36 221 135 25 90 3 211 -46 257
-45 41 -69 49 -169 55 l-94 6 0 -227z m154 174 c81 -18 128 -112 112 -220 -14
-95 -67 -140 -166 -140 l-50 0 0 185 0 185 33 0 c17 0 50 -5 71 -10z"/>
<path d="M2464 2194 l-71 -225 26 3 c23 3 28 11 45 71 l20 67 80 0 81 0 20
-68 c18 -59 23 -67 47 -70 l26 -3 -65 203 c-86 267 -78 248 -111 248 -27 0
-28 -2 -98 -226z m160 -19 c6 -25 6 -25 -59 -25 -36 0 -65 3 -65 8 0 4 9 34
19 67 10 33 25 80 31 105 l13 45 27 -88 c16 -48 31 -98 34 -112z"/>
<path d="M2810 2196 l0 -226 25 0 25 0 -2 223 c-3 222 -3 222 -25 225 l-23 3
0 -225z"/>
<path d="M3160 2195 l0 -225 27 0 26 0 -6 200 c-4 128 -3 199 3 195 6 -4 10
-14 10 -23 1 -9 25 -96 54 -192 53 -173 54 -175 82 -175 28 0 29 3 70 140 23
77 51 167 61 200 l18 60 3 -202 c2 -195 3 -203 22 -203 19 0 20 7 20 225 l0
225 -39 0 -38 0 -52 -182 c-29 -101 -55 -191 -59 -201 -5 -12 -20 25 -45 115
-21 73 -47 163 -58 201 l-21 67 -39 0 -39 0 0 -225z"/>
<path d="M3650 2238 c0 -161 2 -187 19 -214 51 -84 204 -85 265 -1 19 26 21
42 21 210 0 180 0 182 -22 185 -22 3 -22 2 -25 -177 -3 -174 -4 -180 -27 -205
-42 -45 -126 -44 -163 2 -9 10 -15 70 -18 196 -5 178 -5 181 -27 184 l-23 3 0
-183z"/>
<path d="M4057 2413 c-4 -3 -7 -105 -7 -225 l0 -218 25 0 25 0 0 106 0 106 61
-4 c73 -5 77 -9 121 -125 27 -71 35 -83 55 -83 13 0 23 3 23 8 0 14 -61 167
-75 189 -13 20 -12 24 20 56 30 30 35 42 35 80 0 61 -30 96 -90 108 -54 10
-184 12 -193 2z m208 -57 c22 -15 26 -23 23 -58 -4 -55 -33 -75 -120 -84 l-68
-7 0 88 0 88 70 -5 c41 -3 80 -12 95 -22z"/>
<path d="M4526 2398 c-3 -13 -35 -114 -70 -226 l-64 -203 26 3 c23 3 29 11 46
71 l19 68 81 -3 81 -3 20 -67 c18 -61 23 -68 46 -68 l27 0 -72 223 -72 222
-31 3 c-25 3 -32 -1 -37 -20z m69 -128 c15 -52 30 -101 32 -107 4 -10 -12 -13
-61 -13 -36 0 -66 3 -66 8 0 4 9 34 19 67 10 33 24 80 31 104 6 23 13 41 14
40 2 -2 16 -47 31 -99z"/>
<path d="M4930 2236 c0 -170 -1 -185 -21 -210 -26 -33 -53 -33 -85 -1 -17 17
-32 24 -45 20 -26 -9 -24 -22 10 -56 42 -41 107 -41 153 0 l33 29 3 201 4 201
-26 0 -26 0 0 -184z"/>
<path d="M5082 2233 c3 -209 7 -221 70 -254 72 -37 176 -18 215 39 15 23 18
54 21 215 l4 187 -26 0 -26 0 0 -169 c0 -93 -4 -181 -10 -195 -18 -48 -94 -70
-149 -42 -45 24 -51 52 -51 236 l0 170 -26 0 -26 0 4 -187z"/>
<path d="M5490 2196 l0 -226 25 0 c24 0 25 2 25 78 1 73 3 79 34 115 39 44 31
50 112 -90 53 -92 61 -103 87 -103 15 0 26 3 24 8 -3 4 -37 61 -77 127 -40 66
-74 123 -76 127 -2 3 27 45 66 91 38 47 70 88 70 91 0 3 -12 6 -27 6 -24 0
-42 -19 -118 -115 l-90 -116 -5 113 c-5 108 -6 113 -27 116 l-23 3 0 -225z"/>
<path d="M5862 2233 c3 -213 8 -229 79 -257 85 -34 176 -11 211 55 15 29 18
58 18 211 l0 178 -24 0 -25 0 -3 -186 c-3 -182 -4 -186 -27 -205 -34 -27 -67
-33 -112 -20 -62 19 -69 42 -69 241 l0 170 -26 0 -26 0 4 -187z"/>
</g>
</svg>
